<?xml version="1.0" encoding="UTF-8"?>
<svg id="Layer_1" xmlns="http://www.w3.org/2000/svg" version="1.1" viewBox="0 0 1920 1080">
  <!-- Generator: Adobe Illustrator 29.3.1, SVG Export Plug-In . SVG Version: 2.1.0 Build 151)  -->
  <defs>
    <style>
      .st0 {
        fill: #fff;
      }
    </style>
  </defs>
  <rect x="8.9" y="-27.1" width="1933.9" height="1134.1"/>
  <g>
    <g>
      <path class="st0" d="M563.7,857.7l31.8-31.8h127.1v31.8h-158.8ZM595.5,984.7l-31.8-31.8v-63.5h31.8v47.6l15.9,15.9h63.5l15.9-15.9v-15.9h-31.8v-31.8h63.5v63.5l-31.8,31.8h-95.3Z"/>
      <path class="st0" d="M754.3,857.7v-31.8h158.8v31.8h-158.8ZM754.3,984.7v-95.3h127.1v31.8h-95.3v31.8h127.1v31.8h-158.8Z"/>
      <path class="st0" d="M944.9,984.7v-95.3h111.2l15.9-15.9-15.9-15.9h-111.2v-31.8h127.1l31.8,31.8v31.8l-31.8,31.8,31.8,63.5h-31.8l-31.8-63.5h-63.5v63.5h-31.8Z"/>
      <path class="st0" d="M1135.5,984.7v-95.3h111.2l15.9-15.9-15.9-15.9h-111.2v-31.8h127.1l31.8,31.8v31.8h-.2l-15.6,15.9,15.9,15.9v31.8l-31.8,31.8h-127.1ZM1246.7,953l15.9-15.9-15.9-15.9h-79.4v31.8h79.4Z"/>
    </g>
    <g>
      <path class="st0" d="M417.2,745.3l-68.2-68.2v-273h68.2v238.9l34.1,34.1h34.1v68.2h-68.2ZM553.7,745.3v-68.2h34.1l34.1-34.1v-238.9h68.2v273l-68.2,68.2h-68.2Z"/>
      <path class="st0" d="M1167.9,745.3v-204.7h238.9l34.1-34.1-34.1-34.1h-182l-56.9-68.2h273l68.2,68.2v68.2l-68.2,68.2h-204.7v136.5h-68.2Z"/>
      <g>
        <ellipse class="st0" cx="934" cy="299.7" rx="278.4" ry="63.1" transform="translate(-18.1 63.8) rotate(-3.9)"/>
        <ellipse cx="934" cy="299.7" rx="123.2" ry="27.9" transform="translate(-18.1 63.8) rotate(-3.9)"/>
        <path d="M749.6,304.4c35.8-40.5,190.1-51.8,245.1-50.7,31.8.5,64.1,2,94.9,10.7,23.1,6,49.3,21.9,17.9,41-27.9,15.6-60,21.5-91.1,27.2,30.8-6.2,62.7-12.7,90.2-28.7,57.8-39.5-91.8-47.1-111.9-46.7-42.2-.7-84.6,1.9-126.4,7.9-31.3,4.7-62.7,10.6-92.2,22.4-9.6,4-19.6,8.7-26.4,17h0Z"/>
        <path class="st0" d="M959.6,228.9c12.2-5.8,16.5-12.6,16.7-17.3.4-8.7-23.9-28.5-49-34.2,0,0,33.3,5.3,41.7-9.2,8.5-14.5-13.6-33.7-13.6-33.7,0,0,61.3,15.9,83.1,83.2,0,0,16.2,7.2,29.6,11.9.9,0,1.8.1,2.7.2-.1-1.7-.2-3.3-.3-5-2.5-60.3-67.8-106.5-145.8-103.2-78,3.3-139.2,54.8-136.7,115,.2,4.2.2,8.4.2,12.4,41.1-8.4,89.4-14.9,141.3-18.4,10.2-.7,20.2-1.2,30.2-1.7Z"/>
        <path d="M929.7,236.7c51.4-3.5,99.8-3.6,141.5-.8-.2-2-.3-4-.5-6.1-.9,0-1.8-.1-2.7-.2-13.4-4.8-29.6-11.9-29.6-11.9-21.7-67.2-83.1-83.2-83.1-83.2,0,0,22.1,19.2,13.6,33.7-8.5,14.5-41.7,9.2-41.7,9.2,25.1,5.6,49.5,25.5,49,34.2-.2,4.7-4.5,11.5-16.7,17.3-9.9.4-20,1-30.2,1.7-51.8,3.5-100.1,10-141.3,18.4,0,2.1,0,4.1,0,6.2,41.2-8.5,89.6-15,141.6-18.5Z"/>
        <polygon points="950.4 299.7 811 308 697.1 496.9 1224.8 472.3 1056.9 291.3 950.4 299.7"/>
      </g>
    </g>
    <polygon class="st0" points="1067.1 678.2 1032.6 609.2 1002.4 548.7 980.8 505.6 929 402 903.1 453.8 895.7 468.7 929 540.1 929 540.1 963.5 609.2 963.5 609.2 894.5 609.2 911.8 574.6 842.7 574.6 825.5 609.2 825.5 609.2 790.9 678.2 790.9 678.2 756.4 747.3 825.5 747.3 860 678.2 998.1 678.2 1032.6 747.3 1101.6 747.3 1067.1 678.2"/>
  </g>
</svg>